<svg width="99" height="74" viewBox="0 0 99 74" fill="none" xmlns="http://www.w3.org/2000/svg">
<g clip-path="url(#clip0_304_7)">
<path d="M49.5742 55.6612H52.5018V64.0653H55.527V55.6612H58.5034V53.1794H49.5742V55.6612Z" fill="black"/>
<path d="M75.1411 53.1719H71.4815L68.066 63.8321L67.9684 63.6065C67.822 63.3245 67.6268 62.5348 67.3829 61.7452C67.2853 61.4069 67.1877 61.0684 67.0901 60.7299C66.8461 59.8275 66.4558 59.2071 65.9191 58.8687C66.7973 58.4175 67.5292 57.515 67.5292 56.2741C67.5292 55.2588 67.1389 54.4692 66.407 53.9052C65.6263 53.2847 64.4552 53.0591 62.6987 53.0591C61.5276 53.0591 60.3078 53.1155 59.3807 53.2847L59.1367 53.3411V64.0578H62.1619V59.9968H62.6011C63.3818 59.9968 63.8209 60.2223 64.0649 61.4632C64.4064 62.8168 64.6504 63.6065 64.8456 63.9449L64.9432 64.0578H67.9196H68.066H71.0424L71.8231 61.4069H74.5068L75.3362 64.0578H78.6054L75.1411 53.3975V53.1719ZM64.5528 56.5561C64.5528 57.2894 63.9185 57.7406 62.8938 57.7406H62.2107V55.428C62.4547 55.428 62.6987 55.3716 63.0402 55.3716C64.0649 55.3716 64.5528 55.7665 64.5528 56.5561ZM73.2381 56.3305C73.3357 56.6689 73.4333 57.0074 73.5309 57.2894L74.1164 59.1506H72.4574L72.9942 57.2894C73.0917 56.9509 73.1405 56.6689 73.2381 56.3305Z" fill="black"/>
<path d="M86.1691 56.4458C86.1691 57.5174 86.1691 58.3635 86.2667 59.2095C85.9251 58.4762 85.5348 57.743 85.1444 57.0661L82.8024 53.1179H79.4844V64.0038H82.3144V60.6196C82.3144 59.4915 82.3144 58.4199 82.2656 57.4046C82.7536 58.4199 83.2903 59.3223 83.583 59.8863L85.9739 64.0038H88.9991V53.1743H86.1691V56.4458Z" fill="black"/>
<path d="M95.1478 57.3973C93.7816 56.8896 93.3424 56.664 93.3424 56.2128C93.3424 55.7615 93.8304 55.4795 94.6111 55.4795C95.343 55.4795 96.0749 55.6488 96.758 55.9308L97.0995 56.1L97.7826 53.6747L97.5387 53.5619C96.7092 53.2234 95.7333 52.9978 94.6598 52.9978C92.0738 52.9978 90.2684 54.4079 90.2684 56.382C90.2684 57.8486 91.3419 58.9765 93.44 59.7098C94.8062 60.161 95.0502 60.4995 95.0502 60.8943C95.0502 61.6839 94.0743 61.7403 93.6352 61.7403C92.4153 61.7403 91.3419 61.2891 91.0491 61.1198L90.7076 60.9506L90.0732 63.4324L90.2684 63.5452C90.8539 63.8837 92.1226 64.222 93.4888 64.222C96.9532 64.222 98.173 62.3607 98.173 60.725C98.1242 59.1457 97.1971 58.0741 95.1478 57.3973Z" fill="black"/>
<path d="M84.2178 0.993907H50.355H49.623C54.6976 2.68601 58.7475 6.63425 60.748 11.7106C60.8456 11.9926 61.1384 12.2182 61.3823 12.2182H66.4569H70.2628H73.1904V46.9064C73.1904 47.3575 73.532 47.7523 73.9223 47.7523H83.4371C83.8275 47.7523 84.169 47.3575 84.169 46.9064V13.0642C84.169 12.6131 84.5106 12.2182 84.9009 12.2182H91.0977C91.3417 12.2182 91.5369 12.1054 91.6832 11.8798L98.2704 2.34759C98.6607 1.78355 98.3192 0.9375 97.6849 0.9375H84.2178V0.993907Z" fill="black"/>
<path d="M17.8584 69.1919H18.8831V72.5886H20.6884V73.3812H17.8584V69.1919Z" fill="black"/>
<path d="M25.1288 71.2807C25.1288 72.6395 24.2505 73.4887 22.9331 73.4887C21.6157 73.4887 20.835 72.5262 20.835 71.3373C20.835 70.0918 21.7132 69.1294 23.0307 69.1294C24.3481 69.1294 25.1288 70.0919 25.1288 71.2807ZM21.8596 71.3373C21.8596 72.1866 22.25 72.7527 22.9331 72.7527C23.6162 72.7527 24.0066 72.1299 24.0066 71.3373C24.0066 70.6014 23.6162 69.922 22.9331 69.922C22.25 69.8654 21.8596 70.4881 21.8596 71.3373Z" fill="black"/>
<path d="M29.5685 73.2057C29.2757 73.3188 28.6414 73.4321 28.0559 73.4321C27.2264 73.4321 26.6408 73.2622 26.2017 72.8659C25.8114 72.5262 25.5674 71.9602 25.5674 71.3373C25.5674 69.922 26.6408 69.1294 28.1534 69.1294C28.739 69.1294 29.1781 69.2427 29.4221 69.3559L29.2269 70.0919C28.9829 69.9787 28.6902 69.922 28.2022 69.922C27.3727 69.922 26.6896 70.375 26.6896 71.2807C26.6896 72.1299 27.2752 72.6395 28.1046 72.6395C28.3486 72.6395 28.5438 72.6395 28.5926 72.5828V71.677H27.9095V70.941H29.5685V73.2057Z" fill="black"/>
<path d="M31.3743 69.1904V73.3799H30.3496V69.1904H31.3743Z" fill="black"/>
<path d="M32.3027 72.4174C32.5954 72.5307 32.9858 72.7005 33.4249 72.7005C33.9128 72.7005 34.1568 72.5307 34.1568 72.2477C34.1568 71.9645 33.9616 71.8514 33.4249 71.6815C32.693 71.4551 32.2051 71.0588 32.2051 70.436C32.2051 69.7 32.8394 69.1904 33.9128 69.1904C34.4008 69.1904 34.7911 69.3037 35.0839 69.4169L34.8399 70.2095C34.6447 70.1529 34.352 69.983 33.9128 69.983C33.4737 69.983 33.2785 70.1529 33.2785 70.3793C33.2785 70.6625 33.5225 70.7756 34.108 70.9455C34.8887 71.2285 35.2791 71.6249 35.2791 72.191C35.2791 72.8704 34.6935 73.4931 33.4737 73.4931C32.937 73.4931 32.449 73.3799 32.2051 73.21L32.3027 72.4174Z" fill="black"/>
<path d="M36.7413 69.983H35.5215V69.1904H38.9859V69.983H37.766V73.3799H36.7413V69.983Z" fill="black"/>
<path d="M40.5481 69.1904V73.3799H39.5234V69.1904H40.5481Z" fill="black"/>
<path d="M44.7446 73.2622C44.5494 73.3754 44.1591 73.4321 43.5735 73.4321C42.0121 73.4321 41.2314 72.5262 41.2314 71.3373C41.2314 69.922 42.3049 69.1294 43.6711 69.1294C44.2079 69.1294 44.5982 69.2427 44.7934 69.2993L44.5982 70.0353C44.403 69.9787 44.1103 69.8654 43.7199 69.8654C42.8904 69.8654 42.3049 70.3183 42.3049 71.2807C42.3049 72.1299 42.8416 72.6395 43.7687 72.6395C44.0615 72.6395 44.403 72.5828 44.5982 72.5262L44.7446 73.2622Z" fill="black"/>
<path d="M45.4267 72.4174C45.7195 72.5307 46.1098 72.7005 46.5489 72.7005C47.0369 72.7005 47.2809 72.5307 47.2809 72.2477C47.2809 71.9645 47.0857 71.8514 46.5489 71.6815C45.817 71.4551 45.3291 71.0588 45.3291 70.436C45.3291 69.7 45.9634 69.1904 47.0369 69.1904C47.5248 69.1904 47.9152 69.3037 48.2079 69.4169L47.964 70.2095C47.7688 70.1529 47.476 69.983 47.0369 69.983C46.5977 69.983 46.4026 70.1529 46.4026 70.3793C46.4026 70.6625 46.6465 70.7756 47.2321 70.9455C48.0128 71.2285 48.4031 71.6249 48.4031 72.191C48.4031 72.8704 47.8176 73.4931 46.5977 73.4931C46.061 73.4931 45.5731 73.3799 45.3291 73.21L45.4267 72.4174Z" fill="black"/>
<path d="M53.2351 73.4389C53.1375 73.3257 53.04 73.2691 52.9424 73.1558C52.6496 73.3822 52.2593 73.5521 51.7225 73.5521C50.6491 73.5521 50.1611 72.9294 50.1611 72.3633C50.1611 71.7972 50.5027 71.4009 51.0394 71.1744C50.8443 70.948 50.6979 70.6648 50.6979 70.3818C50.6979 69.8722 51.137 69.2495 52.0641 69.2495C52.7472 69.2495 53.2839 69.6458 53.2839 70.212C53.2839 70.6648 53.04 71.0046 52.4056 71.2876C52.6496 71.5707 52.9424 71.8537 53.1375 72.0802C53.3327 71.7972 53.4791 71.4574 53.5279 71.0611H54.455C54.3574 71.6839 54.1134 72.25 53.7231 72.6463C53.967 72.9294 54.2598 73.2125 54.5038 73.4955H53.2351V73.4389ZM52.4544 72.5898C52.1617 72.3066 51.8201 71.967 51.4298 71.5707C51.2346 71.6839 51.0882 71.8537 51.0882 72.1368C51.0882 72.4765 51.381 72.8162 51.8201 72.8162C52.1129 72.8162 52.3081 72.7029 52.4544 72.5898ZM51.5274 70.1554C51.5274 70.3818 51.625 70.5517 51.8201 70.7781C52.1617 70.5517 52.3081 70.3818 52.3081 70.1554C52.3081 69.9289 52.1617 69.7591 51.9177 69.7591C51.6737 69.7024 51.5274 69.9289 51.5274 70.1554Z" fill="black"/>
<path d="M56.2587 72.4174C56.5515 72.5307 56.9418 72.7005 57.381 72.7005C57.8689 72.7005 58.1129 72.5307 58.1129 72.2477C58.1129 71.9645 57.9177 71.8514 57.381 71.6815C56.6491 71.4551 56.1611 71.0588 56.1611 70.436C56.1611 69.7 56.7955 69.1904 57.8689 69.1904C58.3569 69.1904 58.7472 69.3037 59.04 69.4169L58.796 70.2095C58.6008 70.1529 58.3081 69.983 57.8689 69.983C57.4298 69.983 57.2346 70.1529 57.2346 70.3793C57.2346 70.6625 57.4786 70.7756 58.0641 70.9455C58.8448 71.2285 59.2352 71.6249 59.2352 72.191C59.2352 72.8704 58.6496 73.4931 57.4298 73.4931C56.8931 73.4931 56.4051 73.3799 56.1611 73.21L56.2587 72.4174Z" fill="black"/>
<path d="M62.5059 71.6273H60.8469V72.6463H62.7011V73.4389H59.8223V69.2495H62.6035V70.0421H60.8469V70.8914H62.5059V71.6273Z" fill="black"/>
<path d="M63.3838 69.2427C63.7253 69.1861 64.2133 69.1294 64.75 69.1294C65.4331 69.1294 65.8723 69.2427 66.2138 69.4691C66.4578 69.6956 66.6042 69.9787 66.6042 70.3749C66.6042 70.8844 66.2138 71.2807 65.8235 71.3939C66.1162 71.5072 66.3114 71.7902 66.409 72.1865C66.5554 72.6394 66.7018 73.2055 66.7993 73.3754H65.7747C65.6771 73.2621 65.5795 72.9225 65.4819 72.4129C65.3843 71.9035 65.1892 71.7336 64.75 71.7336H64.4573V73.3754H63.4326V69.2427H63.3838ZM64.4085 71.0543H64.7988C65.2867 71.0543 65.6283 70.8279 65.6283 70.4316C65.6283 70.0353 65.3355 69.8654 64.8964 69.8654C64.6524 69.8654 64.506 69.8654 64.4573 69.922V71.0543H64.4085Z" fill="black"/>
<path d="M68.3603 73.4389L66.8965 69.2495H68.0187L68.5555 71.0046C68.7018 71.5141 68.8482 71.967 68.9458 72.5332C69.0434 72.0236 69.1898 71.5141 69.3362 71.0611L69.9217 69.2495H70.9951L69.4825 73.4389H68.3603Z" fill="black"/>
<path d="M72.6057 69.1904V73.3799H71.5811V69.1904H72.6057Z" fill="black"/>
<path d="M76.8012 73.2622C76.606 73.3754 76.2157 73.4321 75.6302 73.4321C74.0688 73.4321 73.2881 72.5262 73.2881 71.3373C73.2881 69.922 74.3615 69.1294 75.7278 69.1294C76.2645 69.1294 76.6548 69.2427 76.85 69.2993L76.6548 70.0353C76.4597 69.9787 76.1669 69.8654 75.7766 69.8654C74.9471 69.8654 74.3615 70.3183 74.3615 71.2807C74.3615 72.1299 74.8983 72.6395 75.8254 72.6395C76.1181 72.6395 76.4597 72.5828 76.6548 72.5262L76.8012 73.2622Z" fill="black"/>
<path d="M80.1192 71.6273H78.4602V72.6463H80.3144V73.4389H77.4355V69.2495H80.2168V70.0421H78.4602V70.8914H80.1192V71.6273Z" fill="black"/>
<path d="M3.85488 53.1111C2.53744 53.1111 1.41519 53.1674 0.488109 53.3366L0.244141 53.3931V64.0533H3.26935V60.387C3.41573 60.387 3.61091 60.387 3.80609 60.387C5.41628 60.387 6.68491 59.9923 7.51441 59.2025C8.19752 58.5822 8.58788 57.6233 8.58788 56.5516C8.58788 55.48 8.14873 54.5775 7.31923 53.9571C6.53853 53.3931 5.41628 53.1111 3.85488 53.1111ZM5.61145 56.6645C5.61145 57.5669 4.92834 58.0745 3.80609 58.0745C3.56212 58.0745 3.41573 58.0745 3.26935 58.0745V55.4235C3.41573 55.4235 3.6597 55.3672 4.00126 55.3672C4.58678 55.3672 5.61145 55.5363 5.61145 56.6645Z" fill="black"/>
<path d="M17.7608 61.7972C17.6632 61.4587 17.5656 61.1204 17.468 60.7819C17.2241 59.8795 16.8337 59.2591 16.297 58.9207C17.1753 58.4695 17.9072 57.567 17.9072 56.3261C17.9072 55.3108 17.5168 54.5212 16.7849 53.9572C16.0042 53.3367 14.8332 53.1111 13.0766 53.1111C11.9055 53.1111 10.6857 53.1676 9.75862 53.3367L9.51465 53.3931V64.1098H12.5399V60.0488H12.979C13.7597 60.0488 14.1988 60.2743 14.4428 61.5152C14.7844 62.8688 15.0283 63.6586 15.2235 63.9969L15.3211 64.1098H18.4927L18.2975 63.7149C18.1999 63.3765 17.956 62.5868 17.7608 61.7972ZM14.9308 56.5517C14.9308 57.2849 14.2964 57.7362 13.2718 57.7362H12.5887V55.4236C12.8326 55.4236 13.0766 55.3673 13.4181 55.3673C14.394 55.3673 14.9308 55.7621 14.9308 56.5517Z" fill="black"/>
<path d="M22.1522 53.1724H19.127V64.0582H22.1522V53.1724Z" fill="black"/>
<path d="M35.3744 53.1724H31.666L30.4462 56.7822C30.2022 57.6282 29.9095 58.5871 29.7143 59.4331C29.5191 58.6435 29.324 57.7974 29.0312 56.8386L27.9089 53.1724H24.1518L23.4199 63.7761V64.0582H26.2987L26.4939 59.8844C26.5427 59.2075 26.5915 58.4743 26.5915 57.741C26.7379 58.4178 26.9331 59.0383 27.1282 59.7151L28.3481 63.8889H30.6902L32.0564 59.6588C32.3004 58.9819 32.5443 58.1923 32.7395 57.459C32.7395 58.305 32.7883 59.1511 32.8371 59.8279L33.0323 64.0582H36.0087L35.3744 53.4544V53.1724Z" fill="black"/>
<path d="M43.4754 53.1724H39.8159L36.3027 64.0582H39.4743L40.255 61.4072H42.9387L43.7682 64.0582H47.0373L43.573 53.398L43.4754 53.1724ZM41.5725 56.3309C41.67 56.6694 41.7676 57.0077 41.8652 57.2897L42.4507 59.1511H40.8406L41.3773 57.2897C41.4261 56.9514 41.5237 56.6694 41.5725 56.3309Z" fill="black"/>
<path d="M0.976977 48.0304H11.2841C11.8214 48.0304 12.2122 47.5164 12.2122 46.9454V37.1799C12.2122 36.5517 12.6519 36.0949 13.1403 36.0949H38.6395C47.2369 36.0949 56.7624 29.6417 56.7624 19.0767C56.7624 8.51177 48.9954 0.687988 38.6395 0.687988H8.54855C8.25546 0.687988 8.01121 0.859319 7.81582 1.08775L1.27007 10.2821C0.732736 11.0245 1.17238 12.1096 2.00281 12.1096H38.6395C42.4497 12.1096 44.0128 16.1071 44.0128 18.2201C44.0128 20.3332 42.6939 24.3878 38.6395 24.3878H0.928133C0.390795 24.3878 0 24.9017 0 25.4729V46.9454C0.0488489 47.5736 0.488489 48.0304 0.976977 48.0304Z" fill="black"/>
<path d="M98.1241 71.8491H83.2908C83.1445 71.8491 83.0469 71.7339 83.0469 71.5611C83.0469 71.3882 83.1445 71.2729 83.2908 71.2729H98.1241C98.2705 71.2729 98.3681 71.3882 98.3681 71.5611C98.3681 71.7339 98.2705 71.8491 98.1241 71.8491Z" fill="black"/>
<path d="M15.0773 71.9041H0.243969C0.0975875 71.9041 0 71.7892 0 71.6166C0 71.4441 0.0975875 71.3291 0.243969 71.3291H15.0773C15.2236 71.3291 15.3212 71.4441 15.3212 71.6166C15.3212 71.7892 15.2236 71.9041 15.0773 71.9041Z" fill="black"/>
</g>
<defs>
<clipPath id="clip0_304_7">
<rect width="99" height="74" fill="white"/>
</clipPath>
</defs>
</svg>
